<?xml version="1.0" encoding="iso-8859-1"?>
<!-- Generator: Adobe Illustrator 19.0.0, SVG Export Plug-In . SVG Version: 6.00 Build 0)  -->
<svg version="1.1" id="Capa_1" xmlns="http://www.w3.org/2000/svg" xmlns:xlink="http://www.w3.org/1999/xlink" x="0px" y="0px"
	 viewBox="0 0 512 512" style="enable-background:new 0 0 512 512;" xml:space="preserve">
<path style="fill:#3C3C3C;" d="M512,256c0,47.031-12.685,91.105-34.816,128.972c-13.458,23.03-30.407,43.771-50.124,61.482
	C381.722,487.205,321.766,512,256,512C114.615,512,0,397.385,0,256S114.615,0,256,0c132.921,0,242.186,101.303,254.788,230.922
	C511.592,239.177,512,247.536,512,256z"/>
<path style="fill:#4889F8;" d="M512,256c0,75.63-32.789,143.59-84.94,190.454H207.935v-0.094
	C107.875,443.319,27.69,361.263,27.69,260.462c0-102.724,83.268-185.992,185.992-185.992c81.889,0,151.416,52.924,176.253,126.433
	h40.417c30.762,0,58.89,11.316,80.436,30.02C511.592,239.177,512,247.536,512,256z"/>
<path style="fill:#4081F2;" d="M477.184,384.972c-13.458,23.03-30.407,43.771-50.124,61.482H263.816L144.969,327.607
	l137.425-137.425L477.184,384.972z"/>
<path style="fill:#EFEFEF;" d="M348.392,369.05l-54.835-54.835c26.297-37.879,22.595-90.277-11.162-124.034
	c-37.95-37.95-99.477-37.95-137.427,0s-37.95,99.477,0,137.427c32.6,32.601,82.588,37.168,120.093,13.758l55.507,55.507
	c4.531,4.53,11.875,4.53,16.405,0l11.418-11.418C352.923,380.925,352.923,373.58,348.392,369.05z"/>
<circle style="fill:#4081F2;" cx="213.682" cy="258.894" r="59.037"/>
<g>
</g>
<g>
</g>
<g>
</g>
<g>
</g>
<g>
</g>
<g>
</g>
<g>
</g>
<g>
</g>
<g>
</g>
<g>
</g>
<g>
</g>
<g>
</g>
<g>
</g>
<g>
</g>
<g>
</g>
</svg>
