<?xml version="1.0" encoding="iso-8859-1"?>
<!-- Generator: Adobe Illustrator 19.0.0, SVG Export Plug-In . SVG Version: 6.00 Build 0)  -->
<svg version="1.1" id="Capa_1" xmlns="http://www.w3.org/2000/svg" xmlns:xlink="http://www.w3.org/1999/xlink" x="0px" y="0px"
	 viewBox="0 0 512 512" style="enable-background:new 0 0 512 512;" xml:space="preserve">
<path style="fill:#E5E5E5;" d="M512,412.099V467c0,24.899-20.099,45-45,45H45c-24.901,0-45-20.101-45-45c0-2.1,0.3-4.2,0.601-6.301
	V416.3L60,359.299V135c0-8.401,6.599-15,15-15h362c8.401,0,15,6.599,15,15v244.1C482,395.6,512,412.099,512,412.099z"/>
<path style="fill:#C8C6CD;" d="M512,412.099V467c0,24.899-20.099,45-45,45H256V120h181c8.401,0,15,6.599,15,15v244.1
	C482,395.6,512,412.099,512,412.099z"/>
<path style="fill:#AEADB3;" d="M90,75c0-8.291-6.709-15-15-15H45C20.186,60,0,80.186,0,105v362c0-24.814,20.186-45,45-45h45V75z"/>
<path style="fill:#8B8892;" d="M467,60h-30c-8.291,0-15,6.709-15,15v347h45c24.814,0,45,20.186,45,45V105
	C512,80.186,491.814,60,467,60z"/>
<path style="fill:#4DBAEE;" d="M358.299,309.837l-7.2,26.7L256,400.137l-0.601,0.3l-86.999-55.8l-14.7-34.801
	c1.5-1.5,2.399-3.3,3.898-4.501l90-60c2.1-1.8,5.402-2.399,8.401-2.399c2.999,0,6.301,0.599,8.401,2.399l90,60
	C355.901,306.537,356.8,308.337,358.299,309.837z"/>
<g>
	<path style="fill:#1BA9EF;" d="M358.299,309.837l-7.2,26.7L256,400.137v-157.2c2.999,0,6.301,0.599,8.401,2.399l90,60
		C355.901,306.537,356.8,308.337,358.299,309.837z"/>
	<path style="fill:#1BA9EF;" d="M361,317.938v90c0,5.099-2.401,9.6-6.599,12.599l-90,60H263.5c0,0.3-0.3,0.601-0.3,0.601
		c-2.401,1.199-4.799,1.8-7.2,1.8s-4.799-0.601-7.2-1.8c0,0-0.3-0.3-0.3-0.601h-0.901l-90-60c-4.199-2.999-6.599-7.5-6.599-12.599
		v-90c0-2.701,0.901-6.301,2.701-8.101L256,377.938l102.299-68.101C360.099,311.637,361,315.237,361,317.938z"/>
</g>
<path style="fill:#1689FC;" d="M361,317v90c0,5.099-2.401,9.6-6.599,12.599l-90,60H263.5c0,0.3-0.3,0.601-0.3,0.601
	c-2.401,1.199-4.799,1.8-7.2,1.8V377l102.299-68.101C360.099,310.699,361,314.299,361,317z"/>
<path style="fill:#57555C;" d="M301,45v15l-16.5,30h-51.901L211,60V45c0-24.901,20.099-45,45-45S301,20.099,301,45z"/>
<path style="fill:#3C3A41;" d="M284.5,90H256V0c24.901,0,45,20.099,45,45v15L284.5,90z"/>
<path style="fill:#FF4A4A;" d="M211,60v108.5c0,2.401,0.601,4.799,1.8,6.899l30,58.5c2.4,5.1,7.5,8.101,13.2,8.101
	c5.7,0,10.8-3.001,13.2-8.101l30-58.5c1.199-2.1,1.8-4.499,1.8-6.899V60H211z"/>
<path style="fill:#E61E14;" d="M301,60v108.5c0,2.401-0.601,4.799-1.8,6.899l-30,58.5c-2.4,5.1-7.5,8.101-13.2,8.101V60H301z"/>
<g>
</g>
<g>
</g>
<g>
</g>
<g>
</g>
<g>
</g>
<g>
</g>
<g>
</g>
<g>
</g>
<g>
</g>
<g>
</g>
<g>
</g>
<g>
</g>
<g>
</g>
<g>
</g>
<g>
</g>
</svg>
