<svg height="512pt" viewBox="0 0 512 512" width="512pt" xmlns="http://www.w3.org/2000/svg"><path d="m512 168c0 27.839844-10.878906 53.921875-30.398438 73.601562-19.679687 19.519532-45.761718 30.398438-73.601562 30.398438h-304c-19.199219 0-37.28125 7.519531-50.878906 21.121094-13.601563 13.597656-21.121094 31.679687-21.121094 50.878906 0 39.679688 32.320312 72 72 72h200v32h-200c-57.28125 0-104-46.71875-104-104 0-27.839844 10.878906-53.921875 30.398438-73.601562 19.679687-19.519532 45.761718-30.398438 73.601562-30.398438h304c19.199219 0 37.28125-7.519531 50.878906-21.121094 13.601563-13.597656 21.121094-31.679687 21.121094-50.878906 0-39.679688-32.320312-72-72-72h-200v-32h200c57.28125 0 104 46.71875 104 104zm0 0" fill="#b0bec5"/><path d="m208 64h48v32h-48zm0 0" fill="#90a4ae"/><path d="m0 0h224v160h-224zm0 0" fill="#9a9a9e"/><path d="m256 416h48v32h-48zm0 0" fill="#90a4ae"/><path d="m288 352h224v160h-224zm0 0" fill="#fdd835"/><path d="m387.839844 256-16 16h-231.679688l-16-16 16-16h231.679688zm0 0" fill="#90a4ae"/><path d="m169.378906 256 86.628906-86.628906 86.628907 86.628906-86.628907 86.628906zm0 0" fill="#7c4dff"/><path d="m0 0h224v160h-224zm0 0" fill="#fdd835"/><path d="m256 310.625-70.625-70.625-16 16 86.625 86.625 86.625-86.625-16-16zm0 0" fill="#651fff"/><g fill="#fff"><path d="m32 32h32v32h-32zm0 0"/><path d="m96 32h32v32h-32zm0 0"/></g></svg>