<svg height="480pt" viewBox="0 0 480 479" width="480pt" xmlns="http://www.w3.org/2000/svg"><path d="m328 264.5v97.039062c-.058594 43.210938-25.316406 82.410157-64.640625 100.320313l-23.359375 10.640625-23.359375-10.640625c-39.324219-17.910156-64.582031-57.109375-64.640625-100.320313v-97.039062l88.480469-16zm0 0" fill="#78b9eb"/><path d="m8 56.5v-32c0-8.835938 7.164062-16 16-16h432c8.835938 0 16 7.164062 16 16v32zm0 0" fill="#78b9eb"/><path d="m40 88.5h176v128h-176zm0 0" fill="#78b9eb"/><g fill="#1a6fb0"><path d="m456 .5h-432c-13.238281.039062-23.9609375 10.761719-24 24v352c.0390625 13.238281 10.761719 23.960938 24 24h126.71875c10.636719 30.445312 33.230469 55.234375 62.5625 68.640625l23.4375 10.640625c2.082031.957031 4.480469.957031 6.5625 0l23.4375-10.640625c14.625-6.644531 27.726562-16.230469 38.480469-28.160156 10.628906-11.765625 18.816406-25.523438 24.082031-40.480469h126.71875c13.238281-.039062 23.960938-10.761719 24-24v-352c-.039062-13.238281-10.761719-23.960938-24-24zm-136 361.039062c-.050781 40.066407-23.464844 76.421876-59.921875 93.039063l-20.078125 9.121094-20.078125-9.121094c-36.457031-16.617187-59.871094-52.972656-59.921875-93.039063v-90.320312l80.480469-14.558594 79.519531 14.480469zm144 14.960938c0 4.417969-3.582031 8-8 8h-122.320312c1.539062-7.582031 2.316406-15.300781 2.320312-23.039062v-96.960938c-.015625-3.851562-2.769531-7.148438-6.558594-7.839844l-87.519531-16c-.945313-.242187-1.9375-.242187-2.882813 0l-88.480468 16c-3.789063.691406-6.542969 3.988282-6.558594 7.839844v97.039062c.007812 7.710938.785156 15.402344 2.320312 22.960938h-122.320312c-4.417969 0-8-3.582031-8-8v-312h448zm0-328h-448v-24c0-4.417969 3.582031-8 8-8h432c4.417969 0 8 3.582031 8 8zm0 0"/><path d="m432 24.5h16v16h-16zm0 0"/><path d="m408 24.5h16v16h-16zm0 0"/><path d="m384 24.5h16v16h-16zm0 0"/><path d="m40 224.5h176c4.417969 0 8-3.582031 8-8v-128c0-4.417969-3.582031-8-8-8h-176c-4.417969 0-8 3.582031-8 8v128c0 4.417969 3.582031 8 8 8zm8-128h160v112h-160zm0 0"/><path d="m256 80.5h192v16h-192zm0 0"/><path d="m256 112.5h72v16h-72zm0 0"/><path d="m336 112.5h112v16h-112zm0 0"/><path d="m256 144.5h136v16h-136zm0 0"/><path d="m400 144.5h48v16h-48zm0 0"/><path d="m256 176.5h192v16h-192zm0 0"/><path d="m256 208.5h72v16h-72zm0 0"/><path d="m336 208.5h112v16h-112zm0 0"/><path d="m309.679688 302.179688-64 64c-3.15625 3.09375-8.203126 3.09375-11.359376 0l-32-32 11.359376-11.359376 26.320312 26.398438 58.320312-58.398438zm0 0"/></g></svg>