<svg height="467pt" viewBox="0 -21 467.44001 467" width="467pt" xmlns="http://www.w3.org/2000/svg"><path d="m320 24.21875h104v24h-104zm0 0" fill="#ffb655"/><path d="m320 168.21875h104v24h-104zm0 0" fill="#ffb655"/><path d="m104 96.21875h104v24h-104zm0 0" fill="#ff9811"/><path d="m336 96.21875h104v24h-104zm0 0" fill="#ff9811"/><path d="m320 72.21875v-72h-128v72h16v72h-16v72h128v-72h16v-72zm0 0" fill="#e6e7e8"/><path d="m88 24.21875h104v24h-104zm0 0" fill="#ffb655"/><path d="m88 168.21875h104v24h-104zm0 0" fill="#ffb655"/><path d="m320 144.21875v24h104v-24zm0 0" fill="#ff9811"/><path d="m320 192.21875h104v24h-104zm0 0" fill="#ff9811"/><path d="m192 144.21875h-104v24h104zm0 0" fill="#ff9811"/><path d="m88 192.21875h104v24h-104zm0 0" fill="#ff9811"/><g fill="#ffb655"><path d="m336 72.21875v24h104v-24zm0 0"/><path d="m336 144.21875h104v-24h-104zm0 0"/><path d="m208 72.21875h-104v24h104zm0 0"/><path d="m208 144.21875v-24h-104v24zm0 0"/></g><path d="m320 .21875h104v24h-104zm0 0" fill="#ff9811"/><path d="m320 72.21875h104v-24h-104zm0 0" fill="#ff9811"/><path d="m88 .21875h104v24h-104zm0 0" fill="#ff9811"/><path d="m192 72.21875v-24h-104v24zm0 0" fill="#ff9811"/><path d="m288 96.21875v-8c0-8.835938-7.164062-16-16-16v-8h-16v8c-8.835938 0-16 7.164062-16 16v16c0 8.835938 7.164062 16 16 16h16v16h-16v-8h-16v8c0 8.835938 7.164062 16 16 16v8h16v-8c8.835938 0 16-7.164062 16-16v-16c0-8.835938-7.164062-16-16-16h-16v-16h16v8zm0 0" fill="#ff5023"/><path d="m464.480469 290.058594c-3.574219-7.691406-10.0625-13.640625-18.035157-16.539063-7.96875-2.898437-16.765624-2.5-24.445312 1.101563l-108.695312 50.605468c-4.234376 1.972657-8.84375 2.992188-13.511719 2.992188h-19.792969c17.671875 0 32-14.324219 32-32 0-17.671875-14.328125-32-32-32h-120c-20.335938-.019531-38.464844 12.8125-45.199219 32h-34.800781v104h216.910156c4.671875 0 9.28125-1.023438 13.515625-2.992188l138.613281-64.605468c11.238282-5.300782 18.40625-16.613282 18.402344-29.042969-.003906-4.664063-1.015625-9.277344-2.960937-13.519531zm0 0" fill="#ffdaaa"/><path d="m307.679688 312.21875c-5.6875 9.917969-16.25 16.023438-27.679688 16h-72v-16zm0 0" fill="#ffdaaa"/><path d="m80 264.21875h-80v160h80zm0 0" fill="#3d9ae2"/><path d="m80 296.21875h16v104h-16zm0 0" fill="#ffc477"/><path d="m307.679688 312.21875c-5.6875 9.917969-16.25 16.023438-27.679688 16h-72v-16zm0 0" fill="#ffc477"/></svg>