<?xml version="1.0" encoding="iso-8859-1"?>
<!-- Generator: Adobe Illustrator 19.0.0, SVG Export Plug-In . SVG Version: 6.00 Build 0)  -->
<svg version="1.1" id="Capa_1" xmlns="http://www.w3.org/2000/svg" xmlns:xlink="http://www.w3.org/1999/xlink" x="0px" y="0px"
	 viewBox="0 0 512 512" style="enable-background:new 0 0 512 512;" xml:space="preserve">
<rect x="7.515" y="55.609" style="fill:#EAECEE;" width="496.971" height="448.877"/>
<path style="fill:#D5D9DE;" d="M31.562,464.407V55.609H7.515v448.877h496.971v-24.047H47.593
	C38.739,480.438,31.562,473.261,31.562,464.407z"/>
<rect x="7.515" y="55.609" style="fill:#FD8E61;" width="496.971" height="80.157"/>
<rect x="7.515" y="55.609" style="fill:#FD7239;" width="24.047" height="80.157"/>
<g>
	<path style="fill:#6B7B8B;" d="M256,95.687L256,95.687c-8.854,0-16.031-7.177-16.031-16.031v-56.11
		c0-8.854,7.177-16.031,16.031-16.031l0,0c8.854,0,16.031,7.177,16.031,16.031v56.11C272.031,88.51,264.854,95.687,256,95.687z"/>
	<path style="fill:#6B7B8B;" d="M384.25,95.687L384.25,95.687c-8.854,0-16.031-7.177-16.031-16.031v-56.11
		c0-8.854,7.177-16.031,16.031-16.031l0,0c8.854,0,16.031,7.177,16.031,16.031v56.11C400.282,88.51,393.105,95.687,384.25,95.687z"
		/>
	<path style="fill:#6B7B8B;" d="M127.75,95.687L127.75,95.687c-8.854,0-16.031-7.177-16.031-16.031v-56.11
		c0-8.854,7.177-16.031,16.031-16.031l0,0c8.854,0,16.031,7.177,16.031,16.031v56.11C143.781,88.51,136.604,95.687,127.75,95.687z"
		/>
</g>
<circle style="fill:#FDE6A6;" cx="256" cy="318.121" r="86.168"/>
<circle style="fill:#FCD56A;" cx="256" cy="318.121" r="66.129"/>
<path d="M504.485,48.094h-96.689V23.546C407.796,10.563,397.234,0,384.25,0s-23.546,10.563-23.546,23.546v24.548h-81.159V23.546
	C279.546,10.563,268.983,0,256,0s-23.546,10.563-23.546,23.546v24.548h-81.159V23.546C151.296,10.563,140.733,0,127.75,0
	s-23.546,10.563-23.546,23.546v24.548H7.515C3.364,48.094,0,51.459,0,55.609v448.877C0,508.635,3.364,512,7.515,512h496.971
	c4.151,0,7.515-3.365,7.515-7.515V55.609C512,51.459,508.636,48.094,504.485,48.094z M375.734,23.546
	c0-4.696,3.82-8.517,8.517-8.517c4.696,0,8.517,3.82,8.517,8.517v56.11c0,4.696-3.82,8.517-8.517,8.517
	c-4.696,0-8.517-3.82-8.517-8.517V23.546z M247.483,23.546c0-4.696,3.82-8.517,8.517-8.517s8.517,3.82,8.517,8.517v56.11
	c0,4.696-3.82,8.517-8.517,8.517c-4.696,0-8.517-3.82-8.517-8.517V23.546z M119.233,23.546c0-4.696,3.82-8.517,8.517-8.517
	s8.517,3.82,8.517,8.517v56.11c0,4.696-3.82,8.517-8.517,8.517s-8.517-3.82-8.517-8.517V23.546z M15.029,496.971V143.28h397.61
	c4.151,0,7.515-3.365,7.515-7.515s-3.364-7.515-7.515-7.515H15.029V63.123h89.174v16.532c0,12.983,10.563,23.546,23.546,23.546
	s23.546-10.563,23.546-23.546V63.123h81.159v16.532c0,12.983,10.563,23.546,23.546,23.546s23.546-10.563,23.546-23.546V63.123
	h81.159v16.532c0,12.983,10.563,23.546,23.546,23.546s23.546-10.563,23.546-23.546V63.123h89.174v65.127h-49.597
	c-4.151,0-7.515,3.365-7.515,7.515s3.364,7.515,7.515,7.515h49.597v353.691H15.029z"/>
<path d="M448.376,199.389c4.151,0,7.515-3.365,7.515-7.515s-3.364-7.515-7.515-7.515h-56.611v-16.532
	c0-4.15-3.364-7.515-7.515-7.515s-7.515,3.365-7.515,7.515v16.532H263.515v-16.532c0-4.15-3.364-7.515-7.515-7.515
	c-4.151,0-7.515,3.365-7.515,7.515v16.532H135.264v-16.532c0-4.15-3.364-7.515-7.515-7.515c-4.151,0-7.515,3.365-7.515,7.515v16.532
	H63.624c-4.151,0-7.515,3.365-7.515,7.515s3.364,7.515,7.515,7.515h56.611v113.221H63.624c-4.151,0-7.515,3.365-7.515,7.515
	s3.364,7.515,7.515,7.515h56.611v113.221H63.624c-4.151,0-7.515,3.365-7.515,7.515s3.364,7.515,7.515,7.515h56.611v16.532
	c0,4.15,3.364,7.515,7.515,7.515s7.515-3.365,7.515-7.515V455.89h113.221v16.532c0,4.15,3.364,7.515,7.515,7.515
	c4.151,0,7.515-3.365,7.515-7.515V455.89h113.221v16.532c0,4.15,3.364,7.515,7.515,7.515s7.515-3.365,7.515-7.515V455.89h56.611
	c4.151,0,7.515-3.365,7.515-7.515s-3.364-7.515-7.515-7.515h-56.611V327.64h56.611c4.151,0,7.515-3.365,7.515-7.515
	s-3.364-7.515-7.515-7.515h-56.611V199.389H448.376z M376.736,312.611h-7.681c-4.151,0-7.515,3.365-7.515,7.515
	s3.364,7.515,7.515,7.515h7.681v113.221H263.515v-7.515c0-4.15-3.364-7.515-7.515-7.515c-4.151,0-7.515,3.365-7.515,7.515v7.515
	H135.264V327.64h7.681c4.151,0,7.515-3.365,7.515-7.515s-3.364-7.515-7.515-7.515h-7.681V199.389h113.221v8.183
	c0,4.15,3.364,7.515,7.515,7.515c4.151,0,7.515-3.365,7.515-7.515v-8.183h113.221V312.611z"/>
<path d="M256,224.438c-51.657,0-93.683,42.026-93.683,93.683s42.026,93.683,93.683,93.683s93.683-42.026,93.683-93.683
	S307.657,224.438,256,224.438z M256,396.775c-43.37,0-78.654-35.284-78.654-78.654S212.63,239.468,256,239.468
	s78.654,35.284,78.654,78.654S299.37,396.775,256,396.775z"/>
<path d="M263.515,274.251v-8.231c0-4.15-3.364-7.515-7.515-7.515c-4.151,0-7.515,3.365-7.515,7.515v8.591
	c-11.857,2.299-20.841,12.755-20.841,25.274c0,14.199,11.552,25.75,25.75,25.75h5.209c5.912,0,10.721,4.809,10.721,10.721
	c0,5.912-4.809,10.721-10.721,10.721h-7.815c-4.475,0-8.116-3.641-8.116-8.116c0-4.15-3.364-7.515-7.515-7.515
	s-7.515,3.365-7.515,7.515c0,11.984,9.156,21.87,20.841,23.03v8.231c0,4.15,3.364,7.515,7.515,7.515s7.515-3.365,7.515-7.515v-8.591
	c11.857-2.299,20.841-12.755,20.841-25.274c0-14.199-11.552-25.75-25.75-25.75h-5.209c-5.912,0-10.721-4.809-10.721-10.721
	c0-5.912,4.809-10.721,10.721-10.721h7.815c4.475,0,8.116,3.641,8.116,8.116v5.21c0,4.15,3.364,7.515,7.515,7.515
	c4.151,0,7.515-3.365,7.515-7.515v-5.21C284.355,285.296,275.199,275.411,263.515,274.251z"/>
<g>
</g>
<g>
</g>
<g>
</g>
<g>
</g>
<g>
</g>
<g>
</g>
<g>
</g>
<g>
</g>
<g>
</g>
<g>
</g>
<g>
</g>
<g>
</g>
<g>
</g>
<g>
</g>
<g>
</g>
</svg>
