<?xml version="1.0" encoding="iso-8859-1"?>
<!-- Generator: Adobe Illustrator 19.0.0, SVG Export Plug-In . SVG Version: 6.00 Build 0)  -->
<svg version="1.1" id="Capa_1" xmlns="http://www.w3.org/2000/svg" xmlns:xlink="http://www.w3.org/1999/xlink" x="0px" y="0px"
	 viewBox="0 0 512 512" style="enable-background:new 0 0 512 512;" xml:space="preserve">
<path style="fill:#D8DCE5;" d="M500.966,1.03H46.231c-5.029,0-9.106,4.077-9.106,9.106v91.936h425.552
	c5.029,0,9.106,4.077,9.106,9.106v301.84h29.183c5.029,0,9.106-4.077,9.106-9.106V10.136C510.072,5.107,505.996,1.03,500.966,1.03z"
	/>
<g>
	<path style="fill:#C3C8D1;" d="M66.965,1.03H46.231c-5.029,0-9.106,4.077-9.106,9.106v91.936H57.86V10.136
		C57.859,5.107,61.936,1.03,66.965,1.03z"/>
	<path style="fill:#C3C8D1;" d="M483.411,102.072h-20.734c5.029,0,9.106,4.077,9.106,9.106v301.84h20.734v-301.84
		C492.517,106.149,488.441,102.072,483.411,102.072z"/>
</g>
<path style="fill:#E4EAF8;" d="M465.768,100.012H11.034c-5.029,0-9.106,4.077-9.106,9.106v393.776c0,5.029,4.077,9.106,9.106,9.106
	h454.735c5.029,0,9.106-4.077,9.106-9.106V109.118C474.874,104.089,470.798,100.012,465.768,100.012z"/>
<path style="fill:#D8DCE5;" d="M22.533,502.894V109.118c0-5.029,4.077-9.106,9.106-9.106H11.034c-5.029,0-9.106,4.077-9.106,9.106
	v393.776c0,5.029,4.077,9.106,9.106,9.106h20.605C26.61,512,22.533,507.923,22.533,502.894z"/>
<path style="fill:#00C3FF;" d="M465.768,98.982H11.034c-5.029,0-9.106,4.077-9.106,9.106v52.363h472.947v-52.363
	C474.874,103.058,470.798,98.982,465.768,98.982z"/>
<path style="fill:#FF5050;" d="M65.638,98.982H11.034c-5.029,0-9.106,4.077-9.106,9.106v52.363h63.71V98.982z"/>
<path style="fill:#ED3A3A;" d="M31.639,98.982H11.034c-5.029,0-9.106,4.077-9.106,9.106v52.363h20.605v-52.363
	C22.533,103.058,26.61,98.982,31.639,98.982z"/>
<path style="fill:#00C3FF;" d="M500.966,0H46.231c-5.029,0-9.106,4.077-9.106,9.106v52.363h472.947V9.106
	C510.072,4.077,505.996,0,500.966,0z"/>
<path style="fill:#FF5050;" d="M100.836,0H46.231c-5.029,0-9.106,4.077-9.106,9.106v52.363h63.71V0z"/>
<path style="fill:#ED3A3A;" d="M66.837,0H46.231c-5.029,0-9.106,4.077-9.106,9.106v52.363H57.73V9.106
	C57.73,4.077,61.807,0,66.837,0z"/>
<path style="fill:#FF80BD;" d="M232.128,338.803H64.035c-3.464,0-6.273-2.808-6.273-6.273V219.437c0-3.464,2.808-6.273,6.273-6.273
	h168.093c3.464,0,6.273,2.808,6.273,6.273V332.53C238.4,335.994,235.592,338.803,232.128,338.803z"/>
<path style="fill:#F962B1;" d="M78.367,332.34V219.627c0-3.569,2.893-6.463,6.463-6.463H64.225c-3.569,0-6.463,2.893-6.463,6.463
	V332.34c0,3.569,2.893,6.463,6.463,6.463H84.83C81.26,338.803,78.367,335.91,78.367,332.34z"/>
<path style="fill:#FCA9D4;" d="M161.613,275.983l76.787-53.407v-2.949c0-3.569-2.893-6.463-6.463-6.463h-7.072L148.08,266.57
	l-76.785-53.406h-7.072c-3.569,0-6.463,2.893-6.463,6.463v2.949l76.787,53.407L57.762,329.39v2.95c0,3.569,2.893,6.463,6.463,6.463
	h7.069l76.788-53.408l76.788,53.408h7.069c3.569,0,6.463-2.893,6.463-6.463v-2.95L161.613,275.983z"/>
<g>
	<path style="fill:#FF80BD;" d="M78.367,219.627c0-0.492,0.06-0.97,0.164-1.43l-7.235-5.032h-7.072
		c-3.569,0-6.463,2.893-6.463,6.463v2.949l20.605,14.331L78.367,219.627L78.367,219.627z"/>
	<path style="fill:#FF80BD;" d="M78.367,332.34v-17.282L57.762,329.39v2.95c0,3.569,2.893,6.463,6.463,6.463h7.069l7.237-5.034
		C78.427,333.309,78.367,332.832,78.367,332.34z"/>
</g>
<g>
	<path style="fill:#C3C8D1;" d="M419.073,222.808H284.026c-4.267,0-7.727-3.459-7.727-7.727c0-4.267,3.459-7.727,7.727-7.727
		h135.047c4.267,0,7.727,3.459,7.727,7.727S423.34,222.808,419.073,222.808z"/>
	<path style="fill:#C3C8D1;" d="M419.073,263.409H284.026c-4.267,0-7.727-3.459-7.727-7.727c0-4.267,3.459-7.727,7.727-7.727
		h135.047c4.267,0,7.727,3.459,7.727,7.727C426.799,259.95,423.34,263.409,419.073,263.409z"/>
	<path style="fill:#C3C8D1;" d="M419.073,304.01H284.026c-4.267,0-7.727-3.459-7.727-7.727c0-4.267,3.459-7.727,7.727-7.727h135.047
		c4.267,0,7.727,3.459,7.727,7.727C426.799,300.55,423.34,304.01,419.073,304.01z"/>
	<path style="fill:#C3C8D1;" d="M419.073,344.611H284.026c-4.267,0-7.727-3.459-7.727-7.727s3.459-7.727,7.727-7.727h135.047
		c4.267,0,7.727,3.459,7.727,7.727S423.34,344.611,419.073,344.611z"/>
	<path style="fill:#C3C8D1;" d="M419.073,385.212H57.762c-4.267,0-7.727-3.459-7.727-7.727s3.459-7.727,7.727-7.727h361.311
		c4.267,0,7.727,3.46,7.727,7.727S423.34,385.212,419.073,385.212z"/>
	<path style="fill:#C3C8D1;" d="M419.073,425.812H57.762c-4.267,0-7.727-3.459-7.727-7.727c0-4.267,3.459-7.727,7.727-7.727h361.311
		c4.267,0,7.727,3.459,7.727,7.727S423.34,425.812,419.073,425.812z"/>
	<path style="fill:#C3C8D1;" d="M419.073,466.414H57.762c-4.267,0-7.727-3.459-7.727-7.727c0-4.267,3.459-7.727,7.727-7.727h361.311
		c4.267,0,7.727,3.459,7.727,7.727C426.799,462.954,423.34,466.414,419.073,466.414z"/>
</g>
<g>
</g>
<g>
</g>
<g>
</g>
<g>
</g>
<g>
</g>
<g>
</g>
<g>
</g>
<g>
</g>
<g>
</g>
<g>
</g>
<g>
</g>
<g>
</g>
<g>
</g>
<g>
</g>
<g>
</g>
</svg>
