<?xml version="1.0" encoding="iso-8859-1"?>
<!-- Generator: Adobe Illustrator 19.0.0, SVG Export Plug-In . SVG Version: 6.00 Build 0)  -->
<svg version="1.1" id="Capa_1" xmlns="http://www.w3.org/2000/svg" xmlns:xlink="http://www.w3.org/1999/xlink" x="0px" y="0px"
	 viewBox="0 0 464 464" style="enable-background:new 0 0 464 464;" xml:space="preserve">
<path style="fill:#FFCB5A;" d="M392,0l12.8,16.56c13.237,19.527,19.958,42.741,19.2,66.32V152H40V82.88
	c-0.758-23.579,5.963-46.793,19.2-66.32L72,0L392,0z"/>
<path style="fill:#454545;" d="M368,464H96c-8.837,0-16-7.163-16-16V112h304v336C384,456.837,376.837,464,368,464z"/>
<path style="fill:#168DE2;" d="M352,128v218.728c-0.818,8.049-7.939,13.955-16,13.272H128c-8.061,0.683-15.182-5.223-16-13.272V128
	H352z"/>
<circle style="fill:#777777;" cx="232" cy="408" r="24"/>
<g>
	<path style="fill:#03AA6F;" d="M328,66.56c0.131-15.698-2.607-31.287-8.08-46L312,0h80l12.8,16.56
		c13.237,19.527,19.958,42.741,19.2,66.32h-96V66.56z"/>
	<path style="fill:#03AA6F;" d="M232,41.44v41.44h-96V66.56c-0.131-15.698,2.607-31.287,8.08-46L152,0h80V41.44z"/>
	<path style="fill:#03AA6F;" d="M232,82.88h96V152h-96V82.88z"/>
	<path style="fill:#03AA6F;" d="M40,82.88h96V152H40V82.88z"/>
</g>
<g>
	<path style="fill:#FFCB5A;" d="M328,82.88h96V152h-96V82.88z"/>
	<path style="fill:#FFCB5A;" d="M136,82.88h96V152h-96V82.88z"/>
	<path style="fill:#FFCB5A;" d="M328,66.56v16.32h-96V0h80l7.92,20.56C325.393,35.273,328.131,50.862,328,66.56z"/>
	<path style="fill:#FFCB5A;" d="M136,66.56v16.32H40c-0.758-23.579,5.963-46.793,19.2-66.32L72,0h80l-7.92,20.56
		C138.607,35.273,135.869,50.862,136,66.56z"/>
</g>
<g>
</g>
<g>
</g>
<g>
</g>
<g>
</g>
<g>
</g>
<g>
</g>
<g>
</g>
<g>
</g>
<g>
</g>
<g>
</g>
<g>
</g>
<g>
</g>
<g>
</g>
<g>
</g>
<g>
</g>
</svg>
